<svg id="mermaid-diagram" width="100%" xmlns="http://www.w3.org/2000/svg" class="statediagram" style="max-width: 525.8167724609375px;" viewBox="36.96758270263672 0 525.8167724609375 1006" role="graphics-document document" aria-roledescription="stateDiagram"><style>#mermaid-diagram{font-family:Arial;font-size:16px;fill:#000000;}@keyframes edge-animation-frame{from{stroke-dashoffset:0;}}@keyframes dash{to{stroke-dashoffset:0;}}#mermaid-diagram .edge-animation-slow{stroke-dasharray:9,5!important;stroke-dashoffset:900;animation:dash 50s linear infinite;stroke-linecap:round;}#mermaid-diagram .edge-animation-fast{stroke-dasharray:9,5!important;stroke-dashoffset:900;animation:dash 20s linear infinite;stroke-linecap:round;}#mermaid-diagram .error-icon{fill:#552222;}#mermaid-diagram .error-text{fill:#552222;stroke:#552222;}#mermaid-diagram .edge-thickness-normal{stroke-width:1px;}#mermaid-diagram .edge-thickness-thick{stroke-width:3.5px;}#mermaid-diagram .edge-pattern-solid{stroke-dasharray:0;}#mermaid-diagram .edge-thickness-invisible{stroke-width:0;fill:none;}#mermaid-diagram .edge-pattern-dashed{stroke-dasharray:3;}#mermaid-diagram .edge-pattern-dotted{stroke-dasharray:2;}#mermaid-diagram .marker{fill:#666;stroke:#666;}#mermaid-diagram .marker.cross{stroke:#666;}#mermaid-diagram svg{font-family:Arial;font-size:16px;}#mermaid-diagram p{margin:0;}#mermaid-diagram defs [id$="-barbEnd"]{fill:#000;stroke:#000;}#mermaid-diagram g.stateGroup text{fill:#999;stroke:none;font-size:10px;}#mermaid-diagram g.stateGroup text{fill:#000000;stroke:none;font-size:10px;}#mermaid-diagram g.stateGroup .state-title{font-weight:bolder;fill:#111111;}#mermaid-diagram g.stateGroup rect{fill:#eee;stroke:#999;}#mermaid-diagram g.stateGroup line{stroke:#666;stroke-width:1;}#mermaid-diagram .transition{stroke:#000;stroke-width:1;fill:none;}#mermaid-diagram .stateGroup .composit{fill:#ffffff;border-bottom:1px;}#mermaid-diagram .stateGroup .alt-composit{fill:#e0e0e0;border-bottom:1px;}#mermaid-diagram .state-note{stroke:#999;fill:#666;}#mermaid-diagram .state-note text{fill:#fff;stroke:none;font-size:10px;}#mermaid-diagram .stateLabel .box{stroke:none;stroke-width:0;fill:#eee;opacity:0.5;}#mermaid-diagram .edgeLabel .label rect{fill:#eee;opacity:0.5;}#mermaid-diagram .edgeLabel{background-color:white;text-align:center;}#mermaid-diagram .edgeLabel p{background-color:white;}#mermaid-diagram .edgeLabel rect{opacity:0.5;background-color:white;fill:white;}#mermaid-diagram .edgeLabel .label text{fill:#000000;}#mermaid-diagram .label div .edgeLabel{color:#000000;}#mermaid-diagram .stateLabel text{fill:#111111;font-size:10px;font-weight:bold;}#mermaid-diagram .node circle.state-start{fill:#222;stroke:#222;}#mermaid-diagram .node .fork-join{fill:#222;stroke:#222;}#mermaid-diagram .node circle.state-end{fill:hsl(0, 0%, 83.3333333333%);stroke:#ffffff;stroke-width:1.5;}#mermaid-diagram .end-state-inner{fill:#ffffff;stroke-width:1.5;}#mermaid-diagram .node rect{fill:#eee;stroke:#000;stroke-width:1px;}#mermaid-diagram .node polygon{fill:#eee;stroke:#000;stroke-width:1px;}#mermaid-diagram [id$="-barbEnd"]{fill:#666;}#mermaid-diagram .statediagram-cluster rect{fill:#eee;stroke:#000;stroke-width:1px;}#mermaid-diagram .cluster-label,#mermaid-diagram .nodeLabel{color:#111111;}#mermaid-diagram .statediagram-cluster rect.outer{rx:5px;ry:5px;}#mermaid-diagram .statediagram-state .divider{stroke:#000;}#mermaid-diagram .statediagram-state .title-state{rx:5px;ry:5px;}#mermaid-diagram .statediagram-cluster.statediagram-cluster .inner{fill:#ffffff;}#mermaid-diagram .statediagram-cluster.statediagram-cluster-alt .inner{fill:#f4f4f4;}#mermaid-diagram .statediagram-cluster .inner{rx:0;ry:0;}#mermaid-diagram .statediagram-state rect.basic{rx:5px;ry:5px;}#mermaid-diagram .statediagram-state rect.divider{stroke-dasharray:10,10;fill:#f4f4f4;}#mermaid-diagram .note-edge{stroke-dasharray:5;}#mermaid-diagram .statediagram-note rect{fill:#666;stroke:#999;stroke-width:1px;rx:0;ry:0;}#mermaid-diagram .statediagram-note rect{fill:#666;stroke:#999;stroke-width:1px;rx:0;ry:0;}#mermaid-diagram .statediagram-note text{fill:#fff;}#mermaid-diagram .statediagram-note .nodeLabel{color:#fff;}#mermaid-diagram .statediagram .edgeLabel{color:red;}#mermaid-diagram [id$="-dependencyStart"],#mermaid-diagram [id$="-dependencyEnd"]{fill:#666;stroke:#666;stroke-width:1;}#mermaid-diagram .statediagramTitleText{text-anchor:middle;font-size:18px;fill:#000000;}#mermaid-diagram [data-look="neo"].statediagram-cluster rect{fill:#eee;stroke:url(#mermaid-diagram-gradient);stroke-width:1;}#mermaid-diagram [data-look="neo"].statediagram-cluster rect.outer{rx:5px;ry:5px;filter:drop-shadow( 1px 2px 2px rgba(185,185,185,1));}#mermaid-diagram .node .neo-node{stroke:#999;}#mermaid-diagram [data-look="neo"].node rect,#mermaid-diagram [data-look="neo"].cluster rect,#mermaid-diagram [data-look="neo"].node polygon{stroke:url(#mermaid-diagram-gradient);filter:drop-shadow( 1px 2px 2px rgba(185,185,185,1));}#mermaid-diagram [data-look="neo"].node path{stroke:url(#mermaid-diagram-gradient);stroke-width:1px;}#mermaid-diagram [data-look="neo"].node .outer-path{filter:drop-shadow( 1px 2px 2px rgba(185,185,185,1));}#mermaid-diagram [data-look="neo"].node .neo-line path{stroke:#999;filter:none;}#mermaid-diagram [data-look="neo"].node circle{stroke:url(#mermaid-diagram-gradient);filter:drop-shadow( 1px 2px 2px rgba(185,185,185,1));}#mermaid-diagram [data-look="neo"].node circle .state-start{fill:#000000;}#mermaid-diagram [data-look="neo"].icon-shape .icon{fill:url(#mermaid-diagram-gradient);filter:drop-shadow( 1px 2px 2px rgba(185,185,185,1));}#mermaid-diagram [data-look="neo"].icon-shape .icon-neo path{stroke:url(#mermaid-diagram-gradient);filter:drop-shadow( 1px 2px 2px rgba(185,185,185,1));}#mermaid-diagram :root{--mermaid-font-family:Arial;}</style><g><defs><marker id="mermaid-diagram_stateDiagram-barbEnd" refX="19" refY="7" markerWidth="20" markerHeight="14" markerUnits="userSpaceOnUse" orient="auto"><path d="M 19,7 L9,13 L14,7 L9,1 Z"></path></marker></defs><g class="root"><g class="clusters"></g><g class="edgePaths"><path d="M280.075,22L280.075,26.167C280.075,30.333,280.075,38.667,280.075,47C280.075,55.333,280.075,63.667,280.075,67.833L280.075,72" id="mermaid-diagram-edge0" class=" edge-thickness-normal edge-pattern-solid transition" style="fill:none;;;fill:none" data-edge="true" data-et="edge" data-id="edge0" data-points="W3sieCI6MjgwLjA3NDk5Njk0ODI0MjIsInkiOjIyfSx7IngiOjI4MC4wNzQ5OTY5NDgyNDIyLCJ5Ijo0N30seyJ4IjoyODAuMDc0OTk2OTQ4MjQyMiwieSI6NzJ9XQ==" data-look="classic" marker-end="url(#mermaid-diagram_stateDiagram-barbEnd)"></path><path d="M280.075,112L280.075,118.167C280.075,124.333,280.075,136.667,280.075,149C280.075,161.333,280.075,173.667,280.075,179.833L280.075,186" id="mermaid-diagram-edge1" class=" edge-thickness-normal edge-pattern-solid transition" style="fill:none;;;fill:none" data-edge="true" data-et="edge" data-id="edge1" data-points="W3sieCI6MjgwLjA3NDk5Njk0ODI0MjIsInkiOjExMn0seyJ4IjoyODAuMDc0OTk2OTQ4MjQyMiwieSI6MTQ5fSx7IngiOjI4MC4wNzQ5OTY5NDgyNDIyLCJ5IjoxODZ9XQ==" data-look="classic" marker-end="url(#mermaid-diagram_stateDiagram-barbEnd)"></path><path d="M238.269,220.715L212.564,229.762C186.858,238.81,135.448,256.905,121.344,274.119C107.24,291.333,130.443,307.667,142.044,315.833L153.645,324" id="mermaid-diagram-edge2" class=" edge-thickness-normal edge-pattern-solid transition" style="fill:none;;;fill:none" data-edge="true" data-et="edge" data-id="edge2" data-points="W3sieCI6MjM4LjI2ODc0NTQyMjM2MzI4LCJ5IjoyMjAuNzE0NjkxNzE4MzYyNDd9LHsieCI6ODQuMDM3NDk4NDc0MTIxMSwieSI6Mjc1fSx7IngiOjE1My42NDUwMTYwNDgyNjU1NSwieSI6MzI0fV0=" data-look="classic" marker-end="url(#mermaid-diagram_stateDiagram-barbEnd)"></path><path d="M321.881,222.03L344.905,230.859C367.928,239.687,413.975,257.343,436.998,274.338C460.022,291.333,460.022,307.667,460.022,315.833L460.022,324" id="mermaid-diagram-edge3" class=" edge-thickness-normal edge-pattern-solid transition" style="fill:none;;;fill:none" data-edge="true" data-et="edge" data-id="edge3" data-points="W3sieCI6MzIxLjg4MTI0ODQ3NDEyMTEsInkiOjIyMi4wMzA0NjA4MjgwOTIyfSx7IngiOjQ2MC4wMjE4NzM0NzQxMjExLCJ5IjoyNzV9LHsieCI6NDYwLjAyMTg3MzQ3NDEyMTEsInkiOjMyNH1d" data-look="classic" marker-end="url(#mermaid-diagram_stateDiagram-barbEnd)"></path><path d="M210.467,324L222.069,315.833C233.67,307.667,256.872,291.333,268.474,275C280.075,258.667,280.075,242.333,280.075,234.167L280.075,226" id="mermaid-diagram-edge4" class=" edge-thickness-normal edge-pattern-solid transition" style="fill:none;;;fill:none" data-edge="true" data-et="edge" data-id="edge4" data-points="W3sieCI6MjEwLjQ2NzQ3OTM3NDA5NzczLCJ5IjozMjR9LHsieCI6MjgwLjA3NDk5Njk0ODI0MjIsInkiOjI3NX0seyJ4IjoyODAuMDc0OTk2OTQ4MjQyMiwieSI6MjI2fV0=" data-look="classic" marker-end="url(#mermaid-diagram_stateDiagram-barbEnd)"></path><path d="M460.022,364L460.022,370.167C460.022,376.333,460.022,388.667,460.022,401C460.022,413.333,460.022,425.667,460.022,431.833L460.022,438" id="mermaid-diagram-edge5" class=" edge-thickness-normal edge-pattern-solid transition" style="fill:none;;;fill:none" data-edge="true" data-et="edge" data-id="edge5" data-points="W3sieCI6NDYwLjAyMTg3MzQ3NDEyMTEsInkiOjM2NH0seyJ4Ijo0NjAuMDIxODczNDc0MTIxMSwieSI6NDAxfSx7IngiOjQ2MC4wMjE4NzM0NzQxMjExLCJ5Ijo0Mzh9XQ==" data-look="classic" marker-end="url(#mermaid-diagram_stateDiagram-barbEnd)"></path><path d="M460.022,478L460.022,484.167C460.022,490.333,460.022,502.667,460.022,515C460.022,527.333,460.022,539.667,460.022,545.833L460.022,552" id="mermaid-diagram-edge6" class=" edge-thickness-normal edge-pattern-solid transition" style="fill:none;;;fill:none" data-edge="true" data-et="edge" data-id="edge6" data-points="W3sieCI6NDYwLjAyMTg3MzQ3NDEyMTEsInkiOjQ3OH0seyJ4Ijo0NjAuMDIxODczNDc0MTIxMSwieSI6NTE1fSx7IngiOjQ2MC4wMjE4NzM0NzQxMjExLCJ5Ijo1NTJ9XQ==" data-look="classic" marker-end="url(#mermaid-diagram_stateDiagram-barbEnd)"></path><path d="M460.022,592L460.022,598.167C460.022,604.333,460.022,616.667,460.022,629C460.022,641.333,460.022,653.667,460.022,659.833L460.022,666" id="mermaid-diagram-edge7" class=" edge-thickness-normal edge-pattern-solid transition" style="fill:none;;;fill:none" data-edge="true" data-et="edge" data-id="edge7" data-points="W3sieCI6NDYwLjAyMTg3MzQ3NDEyMTEsInkiOjU5Mn0seyJ4Ijo0NjAuMDIxODczNDc0MTIxMSwieSI6NjI5fSx7IngiOjQ2MC4wMjE4NzM0NzQxMjExLCJ5Ijo2NjZ9XQ==" data-look="classic" marker-end="url(#mermaid-diagram_stateDiagram-barbEnd)"></path><path d="M460.022,706L460.022,712.167C460.022,718.333,460.022,730.667,460.022,743C460.022,755.333,460.022,767.667,460.022,773.833L460.022,780" id="mermaid-diagram-edge8" class=" edge-thickness-normal edge-pattern-solid transition" style="fill:none;;;fill:none" data-edge="true" data-et="edge" data-id="edge8" data-points="W3sieCI6NDYwLjAyMTg3MzQ3NDEyMTEsInkiOjcwNn0seyJ4Ijo0NjAuMDIxODczNDc0MTIxMSwieSI6NzQzfSx7IngiOjQ2MC4wMjE4NzM0NzQxMjExLCJ5Ijo3ODB9XQ==" data-look="classic" marker-end="url(#mermaid-diagram_stateDiagram-barbEnd)"></path><path d="M460.022,820L460.022,826.167C460.022,832.333,460.022,844.667,460.022,857C460.022,869.333,460.022,881.667,460.022,887.833L460.022,894" id="mermaid-diagram-edge9" class=" edge-thickness-normal edge-pattern-solid transition" style="fill:none;;;fill:none" data-edge="true" data-et="edge" data-id="edge9" data-points="W3sieCI6NDYwLjAyMTg3MzQ3NDEyMTEsInkiOjgyMH0seyJ4Ijo0NjAuMDIxODczNDc0MTIxMSwieSI6ODU3fSx7IngiOjQ2MC4wMjE4NzM0NzQxMjExLCJ5Ijo4OTR9XQ==" data-look="classic" marker-end="url(#mermaid-diagram_stateDiagram-barbEnd)"></path><path d="M460.022,934L460.022,938.167C460.022,942.333,460.022,950.667,460.022,958.999C460.022,967.331,460.022,975.662,460.022,979.828L460.022,983.993" id="mermaid-diagram-edge10" class=" edge-thickness-normal edge-pattern-solid transition" style="fill:none;;;fill:none" data-edge="true" data-et="edge" data-id="edge10" data-points="W3sieCI6NDYwLjAyMTg3MzQ3NDEyMTEsInkiOjkzNH0seyJ4Ijo0NjAuMDIxODczNDc0MTIxMSwieSI6OTU5fSx7IngiOjQ2MC4wMjE4NzM0NzQxMjExLCJ5Ijo5ODMuOTkzMzUzMzY2ODUxOH1d" data-look="classic" marker-end="url(#mermaid-diagram_stateDiagram-barbEnd)"></path></g><g class="edgeLabels"><g class="edgeLabel"><g class="label" data-id="edge0" transform="translate(0, 0)"><foreignObject width="0" height="0"><div xmlns="http://www.w3.org/1999/xhtml" class="labelBkg" style="display: table-cell; white-space: nowrap; line-height: 1.5; max-width: 200px; text-align: center;"><span class="edgeLabel "></span></div></foreignObject></g></g><g class="edgeLabel" transform="translate(280.0749969482422, 149)"><g class="label" data-id="edge1" transform="translate(-60.34375, -12)"><foreignObject width="120.6875" height="24"><div xmlns="http://www.w3.org/1999/xhtml" class="labelBkg" style="display: table-cell; white-space: nowrap; line-height: 1.5; max-width: 200px; text-align: center;"><span class="edgeLabel "><p>запуск проверки</p></span></div></foreignObject></g></g><g class="edgeLabel" transform="translate(121.00508, 261.98839)"><g class="label" data-id="edge2" transform="translate(-76.0374984741211, -12)"><foreignObject width="152.0749969482422" height="24"><div xmlns="http://www.w3.org/1999/xhtml" class="labelBkg" style="display: table-cell; white-space: nowrap; line-height: 1.5; max-width: 200px; text-align: center;"><span class="edgeLabel "><p>verdict needs_rework</p></span></div></foreignObject></g></g><g class="edgeLabel" transform="translate(460.0218734741211, 275)"><g class="label" data-id="edge3" transform="translate(-59.150001525878906, -12)"><foreignObject width="118.30000305175781" height="24"><div xmlns="http://www.w3.org/1999/xhtml" class="labelBkg" style="display: table-cell; white-space: nowrap; line-height: 1.5; max-width: 200px; text-align: center;"><span class="edgeLabel "><p>verdict approved</p></span></div></foreignObject></g></g><g class="edgeLabel" transform="translate(280.0749969482422, 275)"><g class="label" data-id="edge4" transform="translate(-100, -24)"><foreignObject width="200" height="48"><div xmlns="http://www.w3.org/1999/xhtml" class="labelBkg" style="display: table; white-space: break-spaces; line-height: 1.5; max-width: 200px; text-align: center; width: 200px;"><span class="edgeLabel "><p>доработка и повторная проверка</p></span></div></foreignObject></g></g><g class="edgeLabel" transform="translate(460.0218734741211, 401)"><g class="label" data-id="edge5" transform="translate(-85.8687515258789, -12)"><foreignObject width="171.7375030517578" height="24"><div xmlns="http://www.w3.org/1999/xhtml" class="labelBkg" style="display: table-cell; white-space: nowrap; line-height: 1.5; max-width: 200px; text-align: center;"><span class="edgeLabel "><p>ручное подтверждение</p></span></div></foreignObject></g></g><g class="edgeLabel" transform="translate(460.0218734741211, 515)"><g class="label" data-id="edge6" transform="translate(-70.60625457763672, -12)"><foreignObject width="141.21250915527344" height="24"><div xmlns="http://www.w3.org/1999/xhtml" class="labelBkg" style="display: table-cell; white-space: nowrap; line-height: 1.5; max-width: 200px; text-align: center;"><span class="edgeLabel "><p>начало разработки</p></span></div></foreignObject></g></g><g class="edgeLabel" transform="translate(460.0218734741211, 629)"><g class="label" data-id="edge7" transform="translate(-94.76250457763672, -12)"><foreignObject width="189.52500915527344" height="24"><div xmlns="http://www.w3.org/1999/xhtml" class="labelBkg" style="display: table-cell; white-space: nowrap; line-height: 1.5; max-width: 200px; text-align: center;"><span class="edgeLabel "><p>передача в тестирование</p></span></div></foreignObject></g></g><g class="edgeLabel" transform="translate(460.0218734741211, 743)"><g class="label" data-id="edge8" transform="translate(-79.625, -12)"><foreignObject width="159.25" height="24"><div xmlns="http://www.w3.org/1999/xhtml" class="labelBkg" style="display: table-cell; white-space: nowrap; line-height: 1.5; max-width: 200px; text-align: center;"><span class="edgeLabel "><p>начало тестирования</p></span></div></foreignObject></g></g><g class="edgeLabel" transform="translate(460.0218734741211, 857)"><g class="label" data-id="edge9" transform="translate(-45.38125228881836, -12)"><foreignObject width="90.76250457763672" height="24"><div xmlns="http://www.w3.org/1999/xhtml" class="labelBkg" style="display: table-cell; white-space: nowrap; line-height: 1.5; max-width: 200px; text-align: center;"><span class="edgeLabel "><p>завершение</p></span></div></foreignObject></g></g><g class="edgeLabel"><g class="label" data-id="edge10" transform="translate(0, 0)"><foreignObject width="0" height="0"><div xmlns="http://www.w3.org/1999/xhtml" class="labelBkg" style="display: table-cell; white-space: nowrap; line-height: 1.5; max-width: 200px; text-align: center;"><span class="edgeLabel "></span></div></foreignObject></g></g></g><g class="nodes"><g class="node default" id="mermaid-diagram-state-root_start-0" data-look="classic" transform="translate(280.0749969482422, 15)"><circle class="state-start" r="7" width="14" height="14"></circle></g><g class="node  statediagram-state " id="mermaid-diagram-state-draft-1" data-look="classic" transform="translate(280.0749969482422, 92)"><rect class="basic label-container" style="" rx="5" ry="5" x="-24.012500762939453" y="-20" width="48.025001525878906" height="40"></rect><g class="label" style="" transform="translate(-16.012500762939453, -12)"><rect></rect><foreignObject width="32.025001525878906" height="24"><div xmlns="http://www.w3.org/1999/xhtml" style="display: table-cell; white-space: nowrap; line-height: 1.5; max-width: 200px; text-align: center;"><span class="nodeLabel markdown-node-label"><p>draft</p></span></div></foreignObject></g></g><g class="node  statediagram-state " id="mermaid-diagram-state-validating-4" data-look="classic" transform="translate(280.0749969482422, 206)"><rect class="basic label-container" style="" rx="5" ry="5" x="-41.806251525878906" y="-20" width="83.61250305175781" height="40"></rect><g class="label" style="" transform="translate(-33.806251525878906, -12)"><rect></rect><foreignObject width="67.61250305175781" height="24"><div xmlns="http://www.w3.org/1999/xhtml" style="display: table-cell; white-space: nowrap; line-height: 1.5; max-width: 200px; text-align: center;"><span class="nodeLabel markdown-node-label"><p>validating</p></span></div></foreignObject></g></g><g class="node  statediagram-state " id="mermaid-diagram-state-needs_rework-4" data-look="classic" transform="translate(182.05624771118164, 344)"><rect class="basic label-container" style="" rx="5" ry="5" x="-58.25" y="-20" width="116.5" height="40"></rect><g class="label" style="" transform="translate(-50.25, -12)"><rect></rect><foreignObject width="100.5" height="24"><div xmlns="http://www.w3.org/1999/xhtml" style="display: table-cell; white-space: nowrap; line-height: 1.5; max-width: 200px; text-align: center;"><span class="nodeLabel markdown-node-label"><p>needs_rework</p></span></div></foreignObject></g></g><g class="node  statediagram-state " id="mermaid-diagram-state-awaiting_approval-5" data-look="classic" transform="translate(460.0218734741211, 344)"><rect class="basic label-container" style="" rx="5" ry="5" x="-72.4937515258789" y="-20" width="144.9875030517578" height="40"></rect><g class="label" style="" transform="translate(-64.4937515258789, -12)"><rect></rect><foreignObject width="128.9875030517578" height="24"><div xmlns="http://www.w3.org/1999/xhtml" style="display: table-cell; white-space: nowrap; line-height: 1.5; max-width: 200px; text-align: center;"><span class="nodeLabel markdown-node-label"><p>awaiting_approval</p></span></div></foreignObject></g></g><g class="node  statediagram-state " id="mermaid-diagram-state-ready_for_dev-6" data-look="classic" transform="translate(460.0218734741211, 458)"><rect class="basic label-container" style="" rx="5" ry="5" x="-59.150001525878906" y="-20" width="118.30000305175781" height="40"></rect><g class="label" style="" transform="translate(-51.150001525878906, -12)"><rect></rect><foreignObject width="102.30000305175781" height="24"><div xmlns="http://www.w3.org/1999/xhtml" style="display: table-cell; white-space: nowrap; line-height: 1.5; max-width: 200px; text-align: center;"><span class="nodeLabel markdown-node-label"><p>ready_for_dev</p></span></div></foreignObject></g></g><g class="node  statediagram-state " id="mermaid-diagram-state-in_progress-7" data-look="classic" transform="translate(460.0218734741211, 572)"><rect class="basic label-container" style="" rx="5" ry="5" x="-49.806251525878906" y="-20" width="99.61250305175781" height="40"></rect><g class="label" style="" transform="translate(-41.806251525878906, -12)"><rect></rect><foreignObject width="83.61250305175781" height="24"><div xmlns="http://www.w3.org/1999/xhtml" style="display: table-cell; white-space: nowrap; line-height: 1.5; max-width: 200px; text-align: center;"><span class="nodeLabel markdown-node-label"><p>in_progress</p></span></div></foreignObject></g></g><g class="node  statediagram-state " id="mermaid-diagram-state-ready_for_testing-8" data-look="classic" transform="translate(460.0218734741211, 686)"><rect class="basic label-container" style="" rx="5" ry="5" x="-69.81875228881836" y="-20" width="139.63750457763672" height="40"></rect><g class="label" style="" transform="translate(-61.81875228881836, -12)"><rect></rect><foreignObject width="123.63750457763672" height="24"><div xmlns="http://www.w3.org/1999/xhtml" style="display: table-cell; white-space: nowrap; line-height: 1.5; max-width: 200px; text-align: center;"><span class="nodeLabel markdown-node-label"><p>ready_for_testing</p></span></div></foreignObject></g></g><g class="node  statediagram-state " id="mermaid-diagram-state-testing-9" data-look="classic" transform="translate(460.0218734741211, 800)"><rect class="basic label-container" style="" rx="5" ry="5" x="-31.575000762939453" y="-20" width="63.150001525878906" height="40"></rect><g class="label" style="" transform="translate(-23.575000762939453, -12)"><rect></rect><foreignObject width="47.150001525878906" height="24"><div xmlns="http://www.w3.org/1999/xhtml" style="display: table-cell; white-space: nowrap; line-height: 1.5; max-width: 200px; text-align: center;"><span class="nodeLabel markdown-node-label"><p>testing</p></span></div></foreignObject></g></g><g class="node  statediagram-state " id="mermaid-diagram-state-done-10" data-look="classic" transform="translate(460.0218734741211, 914)"><rect class="basic label-container" style="" rx="5" ry="5" x="-25.80000114440918" y="-20" width="51.60000228881836" height="40"></rect><g class="label" style="" transform="translate(-17.80000114440918, -12)"><rect></rect><foreignObject width="35.60000228881836" height="24"><div xmlns="http://www.w3.org/1999/xhtml" style="display: table-cell; white-space: nowrap; line-height: 1.5; max-width: 200px; text-align: center;"><span class="nodeLabel markdown-node-label"><p>done</p></span></div></foreignObject></g></g><g class="node default" id="mermaid-diagram-state-root_end-10" data-look="classic" transform="translate(460.0218734741211, 991)"><g class="outer-path"><path d="M7 0 C7 0.40517908122283747, 6.964012880168563 0.816513743121899, 6.893654271085456 1.2155372436685123 C6.823295662002349 1.6145607442151257, 6.716427752933756 2.013397210557766, 6.5778483455013586 2.394141003279681 C6.439268938068961 2.7748847960015954, 6.26476736710249 3.149104622578984, 6.062177826491071 3.4999999999999996 C5.859588285879653 3.8508953774210153, 5.622755194947063 4.189128084166967, 5.362311101832846 4.499513267805774 C5.10186700871863 4.809898451444582, 4.809898451444583 5.10186700871863, 4.499513267805775 5.362311101832846 C4.189128084166968 5.622755194947063, 3.8508953774210166 5.859588285879652, 3.500000000000001 6.06217782649107 C3.149104622578985 6.264767367102489, 2.7748847960015963 6.439268938068961, 2.3941410032796817 6.5778483455013586 C2.013397210557767 6.716427752933756, 1.6145607442151264 6.823295662002349, 1.2155372436685128 6.893654271085456 C0.8165137431218992 6.964012880168563, 0.4051790812228379 7, 4.286263797015736e-16 7 C-0.405179081222837 7, -0.8165137431218985 6.964012880168563, -1.2155372436685121 6.893654271085456 C-1.6145607442151257 6.823295662002349, -2.0133972105577667 6.716427752933756, -2.394141003279681 6.5778483455013586 C-2.774884796001595 6.439268938068961, -3.149104622578983 6.26476736710249, -3.4999999999999982 6.062177826491071 C-3.8508953774210135 5.859588285879653, -4.189128084166966 5.6227551949470636, -4.499513267805773 5.362311101832848 C-4.809898451444581 5.101867008718632, -5.101867008718628 4.809898451444586, -5.3623111018328435 4.499513267805779 C-5.622755194947059 4.189128084166971, -5.859588285879649 3.8508953774210206, -6.062177826491068 3.5000000000000053 C-6.264767367102486 3.14910462257899, -6.439268938068958 2.774884796001602, -6.577848345501356 2.394141003279688 C-6.716427752933754 2.0133972105577738, -6.823295662002347 1.614560744215134, -6.893654271085454 1.215537243668521 C-6.9640128801685615 0.816513743121908, -6.999999999999999 0.4051790812228472, -7 1.0183126166254463e-14 C-7.000000000000001 -0.40517908122282686, -6.964012880168565 -0.8165137431218878, -6.893654271085459 -1.215537243668501 C-6.823295662002352 -1.6145607442151142, -6.716427752933759 -2.0133972105577542, -6.577848345501363 -2.394141003279669 C-6.439268938068967 -2.7748847960015834, -6.264767367102496 -3.149104622578972, -6.062177826491078 -3.4999999999999876 C-5.859588285879661 -3.8508953774210033, -5.6227551949470715 -4.1891280841669545, -5.362311101832856 -4.499513267805763 C-5.10186700871864 -4.809898451444571, -4.809898451444594 -5.10186700871862, -4.499513267805787 -5.362311101832836 C-4.189128084166979 -5.622755194947053, -3.850895377421028 -5.859588285879643, -3.5000000000000133 -6.062177826491062 C-3.1491046225789985 -6.264767367102482, -2.774884796001611 -6.439268938068954, -2.3941410032796973 -6.577848345501353 C-2.0133972105577835 -6.716427752933752, -1.6145607442151435 -6.823295662002345, -1.2155372436685306 -6.893654271085453 C-0.8165137431219176 -6.9640128801685615, -0.40517908122285695 -6.999999999999999, -1.9937625952807352e-14 -7 C0.4051790812228171 -7.000000000000001, 0.8165137431218781 -6.964012880168565, 1.2155372436684913 -6.89365427108546 C1.6145607442151044 -6.823295662002354, 2.013397210557745 -6.716427752933763, 2.3941410032796595 -6.5778483455013665 C2.774884796001574 -6.43926893806897, 3.149104622578963 -6.2647673671025, 3.499999999999979 -6.062177826491083 C3.8508953774209953 -5.859588285879665, 4.189128084166947 -5.622755194947077, 4.499513267805756 -5.362311101832862 C4.809898451444564 -5.1018670087186475, 5.101867008718613 -4.809898451444602, 5.362311101832829 -4.499513267805796 C5.622755194947046 -4.189128084166989, 5.859588285879637 -3.8508953774210393, 6.062177826491056 -3.500000000000025 C6.2647673671024755 -3.1491046225790105, 6.439268938068949 -2.774884796001623, 6.577848345501348 -2.3941410032797092 C6.716427752933747 -2.0133972105577955, 6.823295662002342 -1.6145607442151562, 6.893654271085451 -1.2155372436685434 C6.96401288016856 -0.8165137431219307, 6.982275711847575 -0.2025895406114567, 7 -3.2800750208310675e-14 C7.017724288152425 0.2025895406113911, 7.017724288152424 -0.2025895406114242, 7 0" stroke="none" stroke-width="0" fill="#eee" style=""></path><path d="M7 0 C7 0.40517908122283747, 6.964012880168563 0.816513743121899, 6.893654271085456 1.2155372436685123 C6.823295662002349 1.6145607442151257, 6.716427752933756 2.013397210557766, 6.5778483455013586 2.394141003279681 C6.439268938068961 2.7748847960015954, 6.26476736710249 3.149104622578984, 6.062177826491071 3.4999999999999996 C5.859588285879653 3.8508953774210153, 5.622755194947063 4.189128084166967, 5.362311101832846 4.499513267805774 C5.10186700871863 4.809898451444582, 4.809898451444583 5.10186700871863, 4.499513267805775 5.362311101832846 C4.189128084166968 5.622755194947063, 3.8508953774210166 5.859588285879652, 3.500000000000001 6.06217782649107 C3.149104622578985 6.264767367102489, 2.7748847960015963 6.439268938068961, 2.3941410032796817 6.5778483455013586 C2.013397210557767 6.716427752933756, 1.6145607442151264 6.823295662002349, 1.2155372436685128 6.893654271085456 C0.8165137431218992 6.964012880168563, 0.4051790812228379 7, 4.286263797015736e-16 7 C-0.405179081222837 7, -0.8165137431218985 6.964012880168563, -1.2155372436685121 6.893654271085456 C-1.6145607442151257 6.823295662002349, -2.0133972105577667 6.716427752933756, -2.394141003279681 6.5778483455013586 C-2.774884796001595 6.439268938068961, -3.149104622578983 6.26476736710249, -3.4999999999999982 6.062177826491071 C-3.8508953774210135 5.859588285879653, -4.189128084166966 5.6227551949470636, -4.499513267805773 5.362311101832848 C-4.809898451444581 5.101867008718632, -5.101867008718628 4.809898451444586, -5.3623111018328435 4.499513267805779 C-5.622755194947059 4.189128084166971, -5.859588285879649 3.8508953774210206, -6.062177826491068 3.5000000000000053 C-6.264767367102486 3.14910462257899, -6.439268938068958 2.774884796001602, -6.577848345501356 2.394141003279688 C-6.716427752933754 2.0133972105577738, -6.823295662002347 1.614560744215134, -6.893654271085454 1.215537243668521 C-6.9640128801685615 0.816513743121908, -6.999999999999999 0.4051790812228472, -7 1.0183126166254463e-14 C-7.000000000000001 -0.40517908122282686, -6.964012880168565 -0.8165137431218878, -6.893654271085459 -1.215537243668501 C-6.823295662002352 -1.6145607442151142, -6.716427752933759 -2.0133972105577542, -6.577848345501363 -2.394141003279669 C-6.439268938068967 -2.7748847960015834, -6.264767367102496 -3.149104622578972, -6.062177826491078 -3.4999999999999876 C-5.859588285879661 -3.8508953774210033, -5.6227551949470715 -4.1891280841669545, -5.362311101832856 -4.499513267805763 C-5.10186700871864 -4.809898451444571, -4.809898451444594 -5.10186700871862, -4.499513267805787 -5.362311101832836 C-4.189128084166979 -5.622755194947053, -3.850895377421028 -5.859588285879643, -3.5000000000000133 -6.062177826491062 C-3.1491046225789985 -6.264767367102482, -2.774884796001611 -6.439268938068954, -2.3941410032796973 -6.577848345501353 C-2.0133972105577835 -6.716427752933752, -1.6145607442151435 -6.823295662002345, -1.2155372436685306 -6.893654271085453 C-0.8165137431219176 -6.9640128801685615, -0.40517908122285695 -6.999999999999999, -1.9937625952807352e-14 -7 C0.4051790812228171 -7.000000000000001, 0.8165137431218781 -6.964012880168565, 1.2155372436684913 -6.89365427108546 C1.6145607442151044 -6.823295662002354, 2.013397210557745 -6.716427752933763, 2.3941410032796595 -6.5778483455013665 C2.774884796001574 -6.43926893806897, 3.149104622578963 -6.2647673671025, 3.499999999999979 -6.062177826491083 C3.8508953774209953 -5.859588285879665, 4.189128084166947 -5.622755194947077, 4.499513267805756 -5.362311101832862 C4.809898451444564 -5.1018670087186475, 5.101867008718613 -4.809898451444602, 5.362311101832829 -4.499513267805796 C5.622755194947046 -4.189128084166989, 5.859588285879637 -3.8508953774210393, 6.062177826491056 -3.500000000000025 C6.2647673671024755 -3.1491046225790105, 6.439268938068949 -2.774884796001623, 6.577848345501348 -2.3941410032797092 C6.716427752933747 -2.0133972105577955, 6.823295662002342 -1.6145607442151562, 6.893654271085451 -1.2155372436685434 C6.96401288016856 -0.8165137431219307, 6.982275711847575 -0.2025895406114567, 7 -3.2800750208310675e-14 C7.017724288152425 0.2025895406113911, 7.017724288152424 -0.2025895406114242, 7 0" stroke="#666" stroke-width="2" fill="none" stroke-dasharray="0 0" style=""></path><g><path d="M2.5 0 C2.5 0.14470681472244193, 2.487147457203058 0.29161205111496386, 2.46201938253052 0.4341204441673258 C2.436891307857982 0.5766288372196877, 2.3987241974763416 0.7190704323420595, 2.3492315519647713 0.8550503583141718 C2.299738906453201 0.991030284286284, 2.2374169168223177 1.124680222349637, 2.165063509461097 1.2499999999999998 C2.092710102099876 1.3753197776503625, 2.0081268553382365 1.496117172916774, 1.915111107797445 1.6069690242163481 C1.8220953602566536 1.7178208755159223, 1.7178208755159226 1.8220953602566536, 1.6069690242163484 1.915111107797445 C1.4961171729167742 2.0081268553382365, 1.375319777650363 2.0927101020998755, 1.2500000000000002 2.1650635094610964 C1.1246802223496375 2.2374169168223172, 0.9910302842862845 2.2997389064532, 0.8550503583141721 2.349231551964771 C0.7190704323420597 2.3987241974763416, 0.576628837219688 2.436891307857982, 0.43412044416732604 2.46201938253052 C0.291612051114964 2.487147457203058, 0.14470681472244212 2.5, 1.5308084989341916e-16 2.5 C-0.1447068147224418 2.5, -0.2916120511149638 2.487147457203058, -0.43412044416732576 2.46201938253052 C-0.5766288372196877 2.436891307857982, -0.7190704323420595 2.3987241974763416, -0.8550503583141718 2.3492315519647713 C-0.991030284286284 2.299738906453201, -1.124680222349637 2.2374169168223177, -1.2499999999999996 2.165063509461097 C-1.375319777650362 2.092710102099876, -1.4961171729167733 2.008126855338237, -1.6069690242163475 1.9151111077974459 C-1.7178208755159217 1.8220953602566548, -1.822095360256653 1.7178208755159234, -1.9151111077974443 1.6069690242163495 C-2.0081268553382357 1.4961171729167755, -2.0927101020998746 1.3753197776503645, -2.1650635094610955 1.250000000000002 C-2.2374169168223164 1.1246802223496395, -2.2997389064531992 0.9910302842862865, -2.34923155196477 0.8550503583141743 C-2.3987241974763407 0.7190704323420621, -2.436891307857981 0.5766288372196907, -2.4620193825305194 0.434120444167329 C-2.487147457203058 0.29161205111496724, -2.5 0.14470681472244545, -2.5 3.636830773662308e-15 C-2.5 -0.14470681472243818, -2.4871474572030587 -0.2916120511149599, -2.4620193825305208 -0.4341204441673218 C-2.436891307857983 -0.5766288372196837, -2.398724197476343 -0.7190704323420553, -2.3492315519647726 -0.8550503583141675 C-2.2997389064532023 -0.9910302842862798, -2.23741691682232 -1.1246802223496328, -2.165063509461099 -1.2499999999999956 C-2.092710102099878 -1.3753197776503583, -2.00812685533824 -1.4961171729167695, -1.9151111077974488 -1.606969024216344 C-1.8220953602566576 -1.7178208755159183, -1.7178208755159263 -1.82209536025665, -1.6069690242163523 -1.9151111077974416 C-1.4961171729167784 -2.0081268553382334, -1.3753197776503672 -2.0927101020998724, -1.2500000000000047 -2.1650635094610937 C-1.1246802223496422 -2.237416916822315, -0.9910302842862897 -2.299738906453198, -0.8550503583141776 -2.3492315519647686 C-0.7190704323420656 -2.3987241974763394, -0.5766288372196942 -2.4368913078579806, -0.43412044416733236 -2.462019382530519 C-0.29161205111497057 -2.4871474572030574, -0.1447068147224489 -2.4999999999999996, -7.120580697431198e-15 -2.5 C0.14470681472243463 -2.5000000000000004, 0.29161205111495647 -2.487147457203059, 0.4341204441673183 -2.4620193825305217 C0.5766288372196802 -2.436891307857984, 0.7190704323420518 -2.3987241974763442, 0.8550503583141642 -2.349231551964774 C0.9910302842862766 -2.2997389064532037, 1.1246802223496295 -2.2374169168223212, 1.2499999999999925 -2.165063509461101 C1.3753197776503554 -2.0927101020998804, 1.4961171729167668 -2.008126855338242, 1.6069690242163412 -1.915111107797451 C1.7178208755159157 -1.82209536025666, 1.8220953602566472 -1.7178208755159294, 1.915111107797439 -1.6069690242163557 C2.0081268553382308 -1.496117172916782, 2.09271010209987 -1.3753197776503712, 2.1650635094610915 -1.2500000000000089 C2.237416916822313 -1.1246802223496466, 2.299738906453196 -0.9910302842862939, 2.3492315519647673 -0.855050358314182 C2.3987241974763385 -0.71907043234207, 2.4368913078579792 -0.5766288372196986, 2.462019382530518 -0.4341204441673369 C2.487147457203057 -0.29161205111497523, 2.4936698970884197 -0.07235340736123454, 2.5 -1.1714553645825241e-14 C2.5063301029115803 0.07235340736121111, 2.50633010291158 -0.07235340736122292, 2.5 0" stroke="none" stroke-width="0" fill="#000" style=""></path><path d="M2.5 0 C2.5 0.14470681472244193, 2.487147457203058 0.29161205111496386, 2.46201938253052 0.4341204441673258 C2.436891307857982 0.5766288372196877, 2.3987241974763416 0.7190704323420595, 2.3492315519647713 0.8550503583141718 C2.299738906453201 0.991030284286284, 2.2374169168223177 1.124680222349637, 2.165063509461097 1.2499999999999998 C2.092710102099876 1.3753197776503625, 2.0081268553382365 1.496117172916774, 1.915111107797445 1.6069690242163481 C1.8220953602566536 1.7178208755159223, 1.7178208755159226 1.8220953602566536, 1.6069690242163484 1.915111107797445 C1.4961171729167742 2.0081268553382365, 1.375319777650363 2.0927101020998755, 1.2500000000000002 2.1650635094610964 C1.1246802223496375 2.2374169168223172, 0.9910302842862845 2.2997389064532, 0.8550503583141721 2.349231551964771 C0.7190704323420597 2.3987241974763416, 0.576628837219688 2.436891307857982, 0.43412044416732604 2.46201938253052 C0.291612051114964 2.487147457203058, 0.14470681472244212 2.5, 1.5308084989341916e-16 2.5 C-0.1447068147224418 2.5, -0.2916120511149638 2.487147457203058, -0.43412044416732576 2.46201938253052 C-0.5766288372196877 2.436891307857982, -0.7190704323420595 2.3987241974763416, -0.8550503583141718 2.3492315519647713 C-0.991030284286284 2.299738906453201, -1.124680222349637 2.2374169168223177, -1.2499999999999996 2.165063509461097 C-1.375319777650362 2.092710102099876, -1.4961171729167733 2.008126855338237, -1.6069690242163475 1.9151111077974459 C-1.7178208755159217 1.8220953602566548, -1.822095360256653 1.7178208755159234, -1.9151111077974443 1.6069690242163495 C-2.0081268553382357 1.4961171729167755, -2.0927101020998746 1.3753197776503645, -2.1650635094610955 1.250000000000002 C-2.2374169168223164 1.1246802223496395, -2.2997389064531992 0.9910302842862865, -2.34923155196477 0.8550503583141743 C-2.3987241974763407 0.7190704323420621, -2.436891307857981 0.5766288372196907, -2.4620193825305194 0.434120444167329 C-2.487147457203058 0.29161205111496724, -2.5 0.14470681472244545, -2.5 3.636830773662308e-15 C-2.5 -0.14470681472243818, -2.4871474572030587 -0.2916120511149599, -2.4620193825305208 -0.4341204441673218 C-2.436891307857983 -0.5766288372196837, -2.398724197476343 -0.7190704323420553, -2.3492315519647726 -0.8550503583141675 C-2.2997389064532023 -0.9910302842862798, -2.23741691682232 -1.1246802223496328, -2.165063509461099 -1.2499999999999956 C-2.092710102099878 -1.3753197776503583, -2.00812685533824 -1.4961171729167695, -1.9151111077974488 -1.606969024216344 C-1.8220953602566576 -1.7178208755159183, -1.7178208755159263 -1.82209536025665, -1.6069690242163523 -1.9151111077974416 C-1.4961171729167784 -2.0081268553382334, -1.3753197776503672 -2.0927101020998724, -1.2500000000000047 -2.1650635094610937 C-1.1246802223496422 -2.237416916822315, -0.9910302842862897 -2.299738906453198, -0.8550503583141776 -2.3492315519647686 C-0.7190704323420656 -2.3987241974763394, -0.5766288372196942 -2.4368913078579806, -0.43412044416733236 -2.462019382530519 C-0.29161205111497057 -2.4871474572030574, -0.1447068147224489 -2.4999999999999996, -7.120580697431198e-15 -2.5 C0.14470681472243463 -2.5000000000000004, 0.29161205111495647 -2.487147457203059, 0.4341204441673183 -2.4620193825305217 C0.5766288372196802 -2.436891307857984, 0.7190704323420518 -2.3987241974763442, 0.8550503583141642 -2.349231551964774 C0.9910302842862766 -2.2997389064532037, 1.1246802223496295 -2.2374169168223212, 1.2499999999999925 -2.165063509461101 C1.3753197776503554 -2.0927101020998804, 1.4961171729167668 -2.008126855338242, 1.6069690242163412 -1.915111107797451 C1.7178208755159157 -1.82209536025666, 1.8220953602566472 -1.7178208755159294, 1.915111107797439 -1.6069690242163557 C2.0081268553382308 -1.496117172916782, 2.09271010209987 -1.3753197776503712, 2.1650635094610915 -1.2500000000000089 C2.237416916822313 -1.1246802223496466, 2.299738906453196 -0.9910302842862939, 2.3492315519647673 -0.855050358314182 C2.3987241974763385 -0.71907043234207, 2.4368913078579792 -0.5766288372196986, 2.462019382530518 -0.4341204441673369 C2.487147457203057 -0.29161205111497523, 2.4936698970884197 -0.07235340736123454, 2.5 -1.1714553645825241e-14 C2.5063301029115803 0.07235340736121111, 2.50633010291158 -0.07235340736122292, 2.5 0" stroke="#000" stroke-width="2" fill="none" stroke-dasharray="0 0" style=""></path></g></g></g></g></g></g><defs><filter id="mermaid-diagram-drop-shadow" height="130%" width="130%"><feDropShadow dx="4" dy="4" stdDeviation="0" flood-opacity="0.06" flood-color="#000000"></feDropShadow></filter></defs><defs><filter id="mermaid-diagram-drop-shadow-small" height="150%" width="150%"><feDropShadow dx="2" dy="2" stdDeviation="0" flood-opacity="0.06" flood-color="#000000"></feDropShadow></filter></defs><linearGradient id="mermaid-diagram-gradient" gradientUnits="objectBoundingBox" x1="0%" y1="0%" x2="100%" y2="0%"><stop offset="0%" stop-color="hsl(0, 0%, 83.3333333333%)" stop-opacity="1"></stop><stop offset="100%" stop-color="hsl(0, 0%, 88.9215686275%)" stop-opacity="1"></stop></linearGradient></svg>